<mxfile host="Electron" modified="2023-08-06T10:03:04.681Z" agent="Mozilla/5.0 (Windows NT 10.0; Win64; x64) AppleWebKit/537.36 (KHTML, like Gecko) draw.io/21.6.5 Chrome/114.0.5735.243 Electron/25.3.1 Safari/537.36" etag="lr5eTHjF7kh7RBmGEY-S" version="21.6.5" type="device">
  <diagram id="C5RBs43oDa-KdzZeNtuy" name="Page-1">
    <mxGraphModel dx="994" dy="606" grid="1" gridSize="10" guides="1" tooltips="1" connect="1" arrows="1" fold="1" page="1" pageScale="1" pageWidth="827" pageHeight="1169" math="0" shadow="0">
      <root>
        <mxCell id="WIyWlLk6GJQsqaUBKTNV-0" />
        <mxCell id="WIyWlLk6GJQsqaUBKTNV-1" parent="WIyWlLk6GJQsqaUBKTNV-0" />
        <mxCell id="OohGYZPQU_MmxBlgncTl-0" style="edgeStyle=orthogonalEdgeStyle;rounded=0;orthogonalLoop=1;jettySize=auto;html=1;exitX=0.5;exitY=1;exitDx=0;exitDy=0;entryX=0.5;entryY=0;entryDx=0;entryDy=0;" edge="1" parent="WIyWlLk6GJQsqaUBKTNV-1" source="OohGYZPQU_MmxBlgncTl-1" target="OohGYZPQU_MmxBlgncTl-6">
          <mxGeometry relative="1" as="geometry" />
        </mxCell>
        <mxCell id="OohGYZPQU_MmxBlgncTl-1" value="INICIO" style="ellipse;whiteSpace=wrap;html=1;" vertex="1" parent="WIyWlLk6GJQsqaUBKTNV-1">
          <mxGeometry x="530" y="190" width="80" height="50" as="geometry" />
        </mxCell>
        <mxCell id="OohGYZPQU_MmxBlgncTl-29" style="edgeStyle=orthogonalEdgeStyle;rounded=0;orthogonalLoop=1;jettySize=auto;html=1;exitX=0;exitY=0.5;exitDx=0;exitDy=0;entryX=0.5;entryY=0;entryDx=0;entryDy=0;" edge="1" parent="WIyWlLk6GJQsqaUBKTNV-1" source="OohGYZPQU_MmxBlgncTl-4" target="OohGYZPQU_MmxBlgncTl-12">
          <mxGeometry relative="1" as="geometry" />
        </mxCell>
        <mxCell id="OohGYZPQU_MmxBlgncTl-4" value="a&amp;gt;0" style="rhombus;whiteSpace=wrap;html=1;" vertex="1" parent="WIyWlLk6GJQsqaUBKTNV-1">
          <mxGeometry x="515" y="315" width="110" height="60" as="geometry" />
        </mxCell>
        <mxCell id="OohGYZPQU_MmxBlgncTl-5" style="edgeStyle=orthogonalEdgeStyle;rounded=0;orthogonalLoop=1;jettySize=auto;html=1;exitX=0.5;exitY=1;exitDx=0;exitDy=0;entryX=0.5;entryY=0;entryDx=0;entryDy=0;" edge="1" parent="WIyWlLk6GJQsqaUBKTNV-1" source="OohGYZPQU_MmxBlgncTl-6" target="OohGYZPQU_MmxBlgncTl-4">
          <mxGeometry relative="1" as="geometry" />
        </mxCell>
        <mxCell id="OohGYZPQU_MmxBlgncTl-6" value="a" style="shape=parallelogram;perimeter=parallelogramPerimeter;whiteSpace=wrap;html=1;fixedSize=1;" vertex="1" parent="WIyWlLk6GJQsqaUBKTNV-1">
          <mxGeometry x="525" y="260" width="90" height="40" as="geometry" />
        </mxCell>
        <mxCell id="OohGYZPQU_MmxBlgncTl-34" style="edgeStyle=orthogonalEdgeStyle;rounded=0;orthogonalLoop=1;jettySize=auto;html=1;exitX=0;exitY=0.5;exitDx=0;exitDy=0;entryX=0.5;entryY=0;entryDx=0;entryDy=0;" edge="1" parent="WIyWlLk6GJQsqaUBKTNV-1" source="OohGYZPQU_MmxBlgncTl-8" target="OohGYZPQU_MmxBlgncTl-15">
          <mxGeometry relative="1" as="geometry" />
        </mxCell>
        <mxCell id="OohGYZPQU_MmxBlgncTl-35" style="edgeStyle=orthogonalEdgeStyle;rounded=0;orthogonalLoop=1;jettySize=auto;html=1;exitX=1;exitY=0.5;exitDx=0;exitDy=0;entryX=1;entryY=0.5;entryDx=0;entryDy=0;" edge="1" parent="WIyWlLk6GJQsqaUBKTNV-1" source="OohGYZPQU_MmxBlgncTl-8" target="OohGYZPQU_MmxBlgncTl-19">
          <mxGeometry relative="1" as="geometry">
            <Array as="points">
              <mxPoint x="660" y="480" />
              <mxPoint x="660" y="555" />
            </Array>
          </mxGeometry>
        </mxCell>
        <mxCell id="OohGYZPQU_MmxBlgncTl-8" value="a=0" style="rhombus;whiteSpace=wrap;html=1;" vertex="1" parent="WIyWlLk6GJQsqaUBKTNV-1">
          <mxGeometry x="515" y="450" width="110" height="60" as="geometry" />
        </mxCell>
        <mxCell id="OohGYZPQU_MmxBlgncTl-9" value="Verdadero" style="text;html=1;strokeColor=none;fillColor=none;align=center;verticalAlign=middle;whiteSpace=wrap;rounded=0;" vertex="1" parent="WIyWlLk6GJQsqaUBKTNV-1">
          <mxGeometry x="450" y="315" width="60" height="30" as="geometry" />
        </mxCell>
        <mxCell id="OohGYZPQU_MmxBlgncTl-33" style="edgeStyle=orthogonalEdgeStyle;rounded=0;orthogonalLoop=1;jettySize=auto;html=1;exitX=0.25;exitY=1;exitDx=0;exitDy=0;entryX=1;entryY=0.5;entryDx=0;entryDy=0;" edge="1" parent="WIyWlLk6GJQsqaUBKTNV-1" source="OohGYZPQU_MmxBlgncTl-10" target="OohGYZPQU_MmxBlgncTl-14">
          <mxGeometry relative="1" as="geometry">
            <Array as="points">
              <mxPoint x="660" y="345" />
              <mxPoint x="660" y="425" />
            </Array>
          </mxGeometry>
        </mxCell>
        <mxCell id="OohGYZPQU_MmxBlgncTl-10" value="Falso" style="text;html=1;strokeColor=none;fillColor=none;align=center;verticalAlign=middle;whiteSpace=wrap;rounded=0;" vertex="1" parent="WIyWlLk6GJQsqaUBKTNV-1">
          <mxGeometry x="610" y="315" width="60" height="30" as="geometry" />
        </mxCell>
        <mxCell id="OohGYZPQU_MmxBlgncTl-11" value="Verdadero" style="text;html=1;strokeColor=none;fillColor=none;align=center;verticalAlign=middle;whiteSpace=wrap;rounded=0;" vertex="1" parent="WIyWlLk6GJQsqaUBKTNV-1">
          <mxGeometry x="450" y="450" width="60" height="30" as="geometry" />
        </mxCell>
        <mxCell id="OohGYZPQU_MmxBlgncTl-12" value="&quot;a es un nÃºmero positivo&quot;" style="shape=document;whiteSpace=wrap;html=1;boundedLbl=1;" vertex="1" parent="WIyWlLk6GJQsqaUBKTNV-1">
          <mxGeometry x="430" y="370" width="100" height="50" as="geometry" />
        </mxCell>
        <mxCell id="OohGYZPQU_MmxBlgncTl-31" style="edgeStyle=orthogonalEdgeStyle;rounded=0;orthogonalLoop=1;jettySize=auto;html=1;exitX=0.5;exitY=1;exitDx=0;exitDy=0;entryX=0.5;entryY=0;entryDx=0;entryDy=0;" edge="1" parent="WIyWlLk6GJQsqaUBKTNV-1" source="OohGYZPQU_MmxBlgncTl-14" target="OohGYZPQU_MmxBlgncTl-8">
          <mxGeometry relative="1" as="geometry" />
        </mxCell>
        <mxCell id="OohGYZPQU_MmxBlgncTl-32" style="edgeStyle=orthogonalEdgeStyle;rounded=0;orthogonalLoop=1;jettySize=auto;html=1;exitX=0;exitY=0.5;exitDx=0;exitDy=0;entryX=0.513;entryY=0.817;entryDx=0;entryDy=0;entryPerimeter=0;startArrow=classic;startFill=1;endArrow=none;endFill=0;" edge="1" parent="WIyWlLk6GJQsqaUBKTNV-1" source="OohGYZPQU_MmxBlgncTl-14" target="OohGYZPQU_MmxBlgncTl-12">
          <mxGeometry relative="1" as="geometry">
            <Array as="points">
              <mxPoint x="481" y="425" />
            </Array>
          </mxGeometry>
        </mxCell>
        <mxCell id="OohGYZPQU_MmxBlgncTl-14" value="" style="ellipse;whiteSpace=wrap;html=1;aspect=fixed;" vertex="1" parent="WIyWlLk6GJQsqaUBKTNV-1">
          <mxGeometry x="565" y="420" width="10" height="10" as="geometry" />
        </mxCell>
        <mxCell id="OohGYZPQU_MmxBlgncTl-15" value="&quot;a vale 0&quot;" style="shape=document;whiteSpace=wrap;html=1;boundedLbl=1;" vertex="1" parent="WIyWlLk6GJQsqaUBKTNV-1">
          <mxGeometry x="435" y="500" width="60" height="40" as="geometry" />
        </mxCell>
        <mxCell id="OohGYZPQU_MmxBlgncTl-16" value="Falso" style="text;html=1;strokeColor=none;fillColor=none;align=center;verticalAlign=middle;whiteSpace=wrap;rounded=0;" vertex="1" parent="WIyWlLk6GJQsqaUBKTNV-1">
          <mxGeometry x="615" y="450" width="60" height="30" as="geometry" />
        </mxCell>
        <mxCell id="OohGYZPQU_MmxBlgncTl-38" style="edgeStyle=orthogonalEdgeStyle;rounded=0;orthogonalLoop=1;jettySize=auto;html=1;exitX=0;exitY=0.5;exitDx=0;exitDy=0;entryX=0.5;entryY=0;entryDx=0;entryDy=0;" edge="1" parent="WIyWlLk6GJQsqaUBKTNV-1" source="OohGYZPQU_MmxBlgncTl-17" target="OohGYZPQU_MmxBlgncTl-24">
          <mxGeometry relative="1" as="geometry" />
        </mxCell>
        <mxCell id="OohGYZPQU_MmxBlgncTl-39" style="edgeStyle=orthogonalEdgeStyle;rounded=0;orthogonalLoop=1;jettySize=auto;html=1;exitX=1;exitY=0.5;exitDx=0;exitDy=0;entryX=1;entryY=0.5;entryDx=0;entryDy=0;" edge="1" parent="WIyWlLk6GJQsqaUBKTNV-1" source="OohGYZPQU_MmxBlgncTl-17" target="OohGYZPQU_MmxBlgncTl-28">
          <mxGeometry relative="1" as="geometry">
            <Array as="points">
              <mxPoint x="660" y="610" />
              <mxPoint x="660" y="695" />
            </Array>
          </mxGeometry>
        </mxCell>
        <mxCell id="OohGYZPQU_MmxBlgncTl-17" value="a&amp;lt;0" style="rhombus;whiteSpace=wrap;html=1;" vertex="1" parent="WIyWlLk6GJQsqaUBKTNV-1">
          <mxGeometry x="515" y="580" width="110" height="60" as="geometry" />
        </mxCell>
        <mxCell id="OohGYZPQU_MmxBlgncTl-18" value="Verdadero" style="text;html=1;strokeColor=none;fillColor=none;align=center;verticalAlign=middle;whiteSpace=wrap;rounded=0;" vertex="1" parent="WIyWlLk6GJQsqaUBKTNV-1">
          <mxGeometry x="455" y="580" width="60" height="30" as="geometry" />
        </mxCell>
        <mxCell id="OohGYZPQU_MmxBlgncTl-36" style="edgeStyle=orthogonalEdgeStyle;rounded=0;orthogonalLoop=1;jettySize=auto;html=1;exitX=0;exitY=0.5;exitDx=0;exitDy=0;entryX=0.525;entryY=0.819;entryDx=0;entryDy=0;entryPerimeter=0;startArrow=classic;startFill=1;endArrow=none;endFill=0;" edge="1" parent="WIyWlLk6GJQsqaUBKTNV-1" source="OohGYZPQU_MmxBlgncTl-19" target="OohGYZPQU_MmxBlgncTl-15">
          <mxGeometry relative="1" as="geometry">
            <Array as="points">
              <mxPoint x="467" y="555" />
            </Array>
          </mxGeometry>
        </mxCell>
        <mxCell id="OohGYZPQU_MmxBlgncTl-37" style="edgeStyle=orthogonalEdgeStyle;rounded=0;orthogonalLoop=1;jettySize=auto;html=1;exitX=0.5;exitY=1;exitDx=0;exitDy=0;entryX=0.5;entryY=0;entryDx=0;entryDy=0;" edge="1" parent="WIyWlLk6GJQsqaUBKTNV-1" source="OohGYZPQU_MmxBlgncTl-19" target="OohGYZPQU_MmxBlgncTl-17">
          <mxGeometry relative="1" as="geometry" />
        </mxCell>
        <mxCell id="OohGYZPQU_MmxBlgncTl-19" value="" style="ellipse;whiteSpace=wrap;html=1;aspect=fixed;" vertex="1" parent="WIyWlLk6GJQsqaUBKTNV-1">
          <mxGeometry x="565" y="550" width="10" height="10" as="geometry" />
        </mxCell>
        <mxCell id="OohGYZPQU_MmxBlgncTl-21" value="Falso" style="text;html=1;strokeColor=none;fillColor=none;align=center;verticalAlign=middle;whiteSpace=wrap;rounded=0;" vertex="1" parent="WIyWlLk6GJQsqaUBKTNV-1">
          <mxGeometry x="615" y="580" width="60" height="30" as="geometry" />
        </mxCell>
        <mxCell id="OohGYZPQU_MmxBlgncTl-24" value="&quot;a es un nÃºmero negativo&quot;" style="shape=document;whiteSpace=wrap;html=1;boundedLbl=1;" vertex="1" parent="WIyWlLk6GJQsqaUBKTNV-1">
          <mxGeometry x="425" y="630" width="100" height="50" as="geometry" />
        </mxCell>
        <mxCell id="OohGYZPQU_MmxBlgncTl-26" value="FIN" style="ellipse;whiteSpace=wrap;html=1;" vertex="1" parent="WIyWlLk6GJQsqaUBKTNV-1">
          <mxGeometry x="535" y="720" width="80" height="50" as="geometry" />
        </mxCell>
        <mxCell id="OohGYZPQU_MmxBlgncTl-27" style="edgeStyle=orthogonalEdgeStyle;rounded=0;orthogonalLoop=1;jettySize=auto;html=1;exitX=0;exitY=1;exitDx=0;exitDy=0;entryX=0.5;entryY=0;entryDx=0;entryDy=0;" edge="1" parent="WIyWlLk6GJQsqaUBKTNV-1" source="OohGYZPQU_MmxBlgncTl-28" target="OohGYZPQU_MmxBlgncTl-26">
          <mxGeometry relative="1" as="geometry" />
        </mxCell>
        <mxCell id="OohGYZPQU_MmxBlgncTl-40" style="edgeStyle=orthogonalEdgeStyle;rounded=0;orthogonalLoop=1;jettySize=auto;html=1;exitX=0;exitY=0.5;exitDx=0;exitDy=0;entryX=0.552;entryY=0.787;entryDx=0;entryDy=0;entryPerimeter=0;startArrow=classic;startFill=1;endArrow=none;endFill=0;" edge="1" parent="WIyWlLk6GJQsqaUBKTNV-1" source="OohGYZPQU_MmxBlgncTl-28" target="OohGYZPQU_MmxBlgncTl-24">
          <mxGeometry relative="1" as="geometry">
            <Array as="points">
              <mxPoint x="480" y="695" />
            </Array>
          </mxGeometry>
        </mxCell>
        <mxCell id="OohGYZPQU_MmxBlgncTl-28" value="" style="ellipse;whiteSpace=wrap;html=1;aspect=fixed;" vertex="1" parent="WIyWlLk6GJQsqaUBKTNV-1">
          <mxGeometry x="570" y="690" width="10" height="10" as="geometry" />
        </mxCell>
      </root>
    </mxGraphModel>
  </diagram>
</mxfile>
